HIERARCHY
ROOT Hips
{
	OFFSET 0.000000 71.427986 0.000000
	CHANNELS 6 Xposition Yposition Zposition Xrotation Yrotation Zrotation
	JOINT Pelvis
	{
		OFFSET 0.000000 0.000000 0.000000
		CHANNELS 3 Xrotation Yrotation Zrotation
		JOINT LeftUpLeg
		{
			OFFSET 6.797100 -2.508499 -1.318700
			CHANNELS 3 Xrotation Yrotation Zrotation
			JOINT LeftLeg
			{
				OFFSET 0.069008 -29.241863 0.690200
				CHANNELS 3 Xrotation Yrotation Zrotation
				JOINT LeftFoot
				{
					OFFSET -0.069008 -29.568123 -0.266800
					CHANNELS 3 Xrotation Yrotation Zrotation
					JOINT LeftToeBase
					{
						OFFSET 3.145500 -8.631000 16.059900
						CHANNELS 3 Xrotation Yrotation Zrotation
						End Site
						{
							OFFSET 0.000000 18.501587 0.000000
						}
					}
				}
			}
			JOINT Left_ShortSleeve
			{
				OFFSET 0.265923 -10.480953 1.153800
				CHANNELS 3 Xrotation Yrotation Zrotation
				End Site
				{
					OFFSET 1.725763 19.823879 0.000000
				}
			}
		}
		JOINT RightUpLeg
		{
			OFFSET -6.797100 -2.508499 -1.318700
			CHANNELS 3 Xrotation Yrotation Zrotation
			JOINT RightLeg
			{
				OFFSET -0.082453 -29.241932 0.688000
				CHANNELS 3 Xrotation Yrotation Zrotation
				JOINT RightFoot
				{
					OFFSET 0.082453 -29.568058 -0.264600
					CHANNELS 3 Xrotation Yrotation Zrotation
					JOINT RightToeBase
					{
						OFFSET -3.115300 -8.682800 16.113400
						CHANNELS 3 Xrotation Yrotation Zrotation
						End Site
						{
							OFFSET 0.000000 18.567114 0.000000
						}
					}
				}
			}
			JOINT Right_ShortSleeve
			{
				OFFSET -0.265923 -10.480953 1.153800
				CHANNELS 3 Xrotation Yrotation Zrotation
				End Site
				{
					OFFSET -1.725766 19.823910 0.000000
				}
			}
		}
	}
	JOINT Spine
	{
		OFFSET 0.000000 13.368103 0.470500
		CHANNELS 3 Xrotation Yrotation Zrotation
		JOINT Spine1
		{
			OFFSET 0.147000 13.837402 0.538800
			CHANNELS 3 Xrotation Yrotation Zrotation
			JOINT Spine2
			{
				OFFSET 0.168000 16.242897 -1.435500
				CHANNELS 3 Xrotation Yrotation Zrotation
				JOINT Neck
				{
					OFFSET 0.217200 18.631500 -1.679100
					CHANNELS 3 Xrotation Yrotation Zrotation
					JOINT Head
					{
						OFFSET 0.000000 6.599396 1.385900
						CHANNELS 3 Xrotation Yrotation Zrotation
						JOINT Hat
						{
							OFFSET -0.532200 27.220596 -10.096100
							CHANNELS 3 Xrotation Yrotation Zrotation
							End Site
							{
								OFFSET 0.000000 22.029861 0.000000
							}
						}
						JOINT HairD
						{
							OFFSET -10.777400 17.437393 -1.325900
							CHANNELS 3 Xrotation Yrotation Zrotation
							JOINT HairD1
							{
								OFFSET -3.290299 -11.051193 1.062200
								CHANNELS 3 Xrotation Yrotation Zrotation
								End Site
								{
									OFFSET 0.000000 11.579437 0.000000
								}
							}
						}
						JOINT HairB
						{
							OFFSET -10.777400 17.437393 1.467900
							CHANNELS 3 Xrotation Yrotation Zrotation
							JOINT HairB1
							{
								OFFSET -1.561200 -12.956299 3.590200
								CHANNELS 3 Xrotation Yrotation Zrotation
								End Site
								{
									OFFSET 0.000000 13.534866 0.000000
								}
							}
						}
						JOINT HairA
						{
							OFFSET 9.713100 17.437393 1.467900
							CHANNELS 3 Xrotation Yrotation Zrotation
							JOINT HairA1
							{
								OFFSET 1.561200 -12.956299 3.590200
								CHANNELS 3 Xrotation Yrotation Zrotation
								End Site
								{
									OFFSET 0.000000 13.534866 0.000000
								}
							}
						}
						JOINT HairC
						{
							OFFSET 9.713100 17.437393 -1.325900
							CHANNELS 3 Xrotation Yrotation Zrotation
							JOINT HairC1
							{
								OFFSET 3.290300 -11.051193 1.062200
								CHANNELS 3 Xrotation Yrotation Zrotation
								End Site
								{
									OFFSET 0.000000 11.579437 0.000000
								}
							}
						}
					}
				}
				JOINT LeftShoulder
				{
					OFFSET 5.101800 15.108002 -2.763700
					CHANNELS 3 Xrotation Yrotation Zrotation
					JOINT LeftArm
					{
						OFFSET 9.825497 2.506317 -1.597400
						CHANNELS 3 Xrotation Yrotation Zrotation
						JOINT LeftForeArm
						{
							OFFSET 21.966244 0.000000 0.000000
							CHANNELS 3 Xrotation Yrotation Zrotation
							JOINT LeftHand
							{
								OFFSET 33.879036 0.000000 0.000000
								CHANNELS 3 Xrotation Yrotation Zrotation
								JOINT LeftHandThumb1
								{
									OFFSET 6.715286 -2.359680 3.363841
									CHANNELS 3 Xrotation Yrotation Zrotation
									JOINT LeftHandThumb2
									{
										OFFSET 2.507072 -1.447464 1.447461
										CHANNELS 3 Xrotation Yrotation Zrotation
										JOINT LeftHandThumb3
										{
											OFFSET 2.898338 -1.673355 1.673357
											CHANNELS 3 Xrotation Yrotation Zrotation
											End Site
											{
												OFFSET -0.295959 3.727692 -0.131651
											}
										}
									}
								}
								JOINT LeftHandIndex1
								{
									OFFSET 14.190811 -0.254547 3.840278
									CHANNELS 3 Xrotation Yrotation Zrotation
									JOINT LeftHandIndex2
									{
										OFFSET 3.551727 0.000000 -0.000000
										CHANNELS 3 Xrotation Yrotation Zrotation
										JOINT LeftHandIndex3
										{
											OFFSET 2.894196 0.000000 0.000000
											CHANNELS 3 Xrotation Yrotation Zrotation
											End Site
											{
												OFFSET -1.000603 2.690872 0.366626
											}
										}
									}
								}
								JOINT LeftHandMiddle1
								{
									OFFSET 13.776489 0.000000 0.000000
									CHANNELS 3 Xrotation Yrotation Zrotation
									JOINT LeftHandMiddle2
									{
										OFFSET 3.438232 0.000000 0.000000
										CHANNELS 3 Xrotation Yrotation Zrotation
										JOINT LeftHandMiddle3
										{
											OFFSET 3.691551 0.000000 0.000000
											CHANNELS 3 Xrotation Yrotation Zrotation
											End Site
											{
												OFFSET -1.082298 3.499527 0.457670
											}
										}
									}
								}
								JOINT LeftHandRing1
								{
									OFFSET 13.966164 -0.268127 -3.067488
									CHANNELS 3 Xrotation Yrotation Zrotation
									JOINT LeftHandRing2
									{
										OFFSET 3.162567 0.000000 0.000000
										CHANNELS 3 Xrotation Yrotation Zrotation
										JOINT LeftHandRing3
										{
											OFFSET 3.324348 0.000000 0.000000
											CHANNELS 3 Xrotation Yrotation Zrotation
											End Site
											{
												OFFSET -0.861900 3.184998 0.405154
											}
										}
									}
								}
								JOINT LeftHandPinky1
								{
									OFFSET 13.131393 -0.168503 -5.746925
									CHANNELS 3 Xrotation Yrotation Zrotation
									JOINT LeftHandPinky2
									{
										OFFSET 2.849182 0.000000 0.000000
										CHANNELS 3 Xrotation Yrotation Zrotation
										JOINT LeftHandPinky3
										{
											OFFSET 2.805038 0.000000 0.000000
											CHANNELS 3 Xrotation Yrotation Zrotation
											End Site
											{
												OFFSET -0.882500 2.642609 0.325652
											}
										}
									}
								}
							}
							JOINT Left_Sleeve
							{
								OFFSET 6.592125 -0.646545 0.805568
								CHANNELS 3 Xrotation Yrotation Zrotation
								End Site
								{
									OFFSET -0.000179 20.275787 -0.000000
								}
							}
						}
					}
				}
				JOINT RightShoulder
				{
					OFFSET -5.731700 15.108002 -2.763700
					CHANNELS 3 Xrotation Yrotation Zrotation
					JOINT RightArm
					{
						OFFSET -9.825497 2.506317 -1.597400
						CHANNELS 3 Xrotation Yrotation Zrotation
						JOINT RightForeArm
						{
							OFFSET -21.966242 0.000000 0.000000
							CHANNELS 3 Xrotation Yrotation Zrotation
							JOINT RightHand
							{
								OFFSET -33.879032 0.000000 0.000000
								CHANNELS 3 Xrotation Yrotation Zrotation
								JOINT RightHandThumb1
								{
									OFFSET -6.715286 -2.359680 3.363841
									CHANNELS 3 Xrotation Yrotation Zrotation
									JOINT RightHandThumb2
									{
										OFFSET -2.507072 -1.447464 1.447461
										CHANNELS 3 Xrotation Yrotation Zrotation
										JOINT RightHandThumb3
										{
											OFFSET -2.898338 -1.673355 1.673357
											CHANNELS 3 Xrotation Yrotation Zrotation
											End Site
											{
												OFFSET 0.295959 3.727692 -0.131651
											}
										}
									}
								}
								JOINT RightHandIndex1
								{
									OFFSET -14.190811 -0.254547 3.840278
									CHANNELS 3 Xrotation Yrotation Zrotation
									JOINT RightHandIndex2
									{
										OFFSET -3.551727 0.000000 -0.000000
										CHANNELS 3 Xrotation Yrotation Zrotation
										JOINT RightHandIndex3
										{
											OFFSET -2.894196 0.000000 0.000000
											CHANNELS 3 Xrotation Yrotation Zrotation
											End Site
											{
												OFFSET 1.000603 2.690872 0.366626
											}
										}
									}
								}
								JOINT RightHandMiddle1
								{
									OFFSET -13.776489 0.000000 0.000000
									CHANNELS 3 Xrotation Yrotation Zrotation
									JOINT RightHandMiddle2
									{
										OFFSET -3.438232 0.000000 0.000000
										CHANNELS 3 Xrotation Yrotation Zrotation
										JOINT RightHandMiddle3
										{
											OFFSET -3.691551 0.000000 0.000000
											CHANNELS 3 Xrotation Yrotation Zrotation
											End Site
											{
												OFFSET 1.082298 3.499527 0.457670
											}
										}
									}
								}
								JOINT RightHandRing1
								{
									OFFSET -13.966164 -0.268127 -3.067488
									CHANNELS 3 Xrotation Yrotation Zrotation
									JOINT RightHandRing2
									{
										OFFSET -3.162567 0.000000 0.000000
										CHANNELS 3 Xrotation Yrotation Zrotation
										JOINT RightHandRing3
										{
											OFFSET -3.324348 0.000000 0.000000
											CHANNELS 3 Xrotation Yrotation Zrotation
											End Site
											{
												OFFSET 0.861900 3.184998 0.405154
											}
										}
									}
								}
								JOINT RightHandPinky1
								{
									OFFSET -13.131393 -0.168503 -5.746925
									CHANNELS 3 Xrotation Yrotation Zrotation
									JOINT RightHandPinky2
									{
										OFFSET -2.849182 0.000000 0.000000
										CHANNELS 3 Xrotation Yrotation Zrotation
										JOINT RightHandPinky3
										{
											OFFSET -2.805038 0.000000 0.000000
											CHANNELS 3 Xrotation Yrotation Zrotation
											End Site
											{
												OFFSET 0.882500 2.642609 0.325652
											}
										}
									}
								}
							}
							JOINT Right_Sleeve
							{
								OFFSET -6.592125 -0.646545 0.805568
								CHANNELS 3 Xrotation Yrotation Zrotation
								End Site
								{
									OFFSET 0.000179 20.275787 -0.000000
								}
							}
						}
					}
				}
				JOINT Bind_Right_JacketString
				{
					OFFSET -3.534800 11.969597 7.200700
					CHANNELS 3 Xrotation Yrotation Zrotation
					JOINT Bind_Right_JacketString1
					{
						OFFSET -0.319900 -6.102600 2.794100
						CHANNELS 3 Xrotation Yrotation Zrotation
						End Site
						{
							OFFSET 0.000000 6.719452 0.000000
						}
					}
				}
				JOINT Bind_Left_JacketString
				{
					OFFSET 2.904800 11.969597 7.200700
					CHANNELS 3 Xrotation Yrotation Zrotation
					JOINT Bind_Left_JacketString1
					{
						OFFSET 0.364800 -5.904503 3.186800
						CHANNELS 3 Xrotation Yrotation Zrotation
						End Site
						{
							OFFSET 0.000000 6.719513 0.000000
						}
					}
				}
				JOINT HairE
				{
					OFFSET 5.915200 17.612701 -11.592200
					CHANNELS 3 Xrotation Yrotation Zrotation
					JOINT HairE1
					{
						OFFSET 0.289200 -7.171898 -1.284500
						CHANNELS 3 Xrotation Yrotation Zrotation
						End Site
						{
							OFFSET 0.000000 7.291756 0.000000
						}
					}
				}
				JOINT HairF
				{
					OFFSET -0.864800 17.612701 -11.592200
					CHANNELS 3 Xrotation Yrotation Zrotation
					JOINT HairF1
					{
						OFFSET 0.000000 -14.087097 -2.127501
						CHANNELS 3 Xrotation Yrotation Zrotation
						End Site
						{
							OFFSET 0.000000 14.246841 0.000000
						}
					}
				}
				JOINT HairG
				{
					OFFSET -8.087700 17.612701 -11.592200
					CHANNELS 3 Xrotation Yrotation Zrotation
					JOINT HairG1
					{
						OFFSET -0.293600 -6.081398 -0.910100
						CHANNELS 3 Xrotation Yrotation Zrotation
						End Site
						{
							OFFSET 0.000000 6.156120 0.000000
						}
					}
				}
			}
		}
	}
	JOINT Pouch
	{
		OFFSET 0.000000 4.394501 10.847300
		CHANNELS 3 Xrotation Yrotation Zrotation
		End Site
		{
			OFFSET 0.000000 21.880577 0.000000
		}
	}
	JOINT Bag
	{
		OFFSET -13.229000 4.813004 -0.593300
		CHANNELS 3 Xrotation Yrotation Zrotation
		End Site
		{
			OFFSET 0.000000 21.880577 0.000000
		}
	}
	JOINT OccupyGuyFacialAnim_Joint
	{
		OFFSET 1.000000 -70.206398 -1.655000
		CHANNELS 3 Xrotation Yrotation Zrotation
		End Site
		{
			OFFSET 0.000000 21.880577 0.000000
		}
	}
}
MOTION
Frames: 4
Frame Time: 0.016667
-1.122433 64.315163 0.656850 12.345096 -55.914924 11.083946 -0.000000 0.000000 0.000000 -40.165477 9.231752 26.402941 40.708289 -10.217980 -9.807998 -8.923815 -1.444189 -2.986709 -0.000000 0.000001 -0.000000 -0.000001 -0.000003 -0.000002 -29.596388 -10.847525 -19.488294 51.984450 8.981275 -0.860172 -36.639553 -4.530729 8.908480 0.000000 0.000001 0.000000 0.000001 0.000000 -0.000002 11.712209 1.414070 -2.532764 -7.573175 6.733731 -2.520091 0.220141 5.397599 -4.595491 -12.580312 9.083974 1.899287 -4.773441 33.430743 5.660079 -0.000000 -0.000000 -0.000000 -0.000000 -0.000000 -0.000000 -0.000000 -0.000000 -0.000000 -0.000000 -0.000000 0.000000 0.000000 -0.000000 -0.000000 -0.000000 -0.000000 0.000000 0.000000 -0.000000 -0.000000 -0.000000 -0.000000 -0.000000 -0.000000 -0.000000 -0.000000 -31.809707 13.410702 5.488760 38.429530 -24.730771 -35.179190 -0.000013 -63.060883 -0.000025 -30.857579 -7.137400 36.647858 -1.721984 5.255668 -13.188783 20.563191 52.534632 0.189404 0.000001 -0.000001 -0.000001 12.956323 -4.115551 -90.449709 8.952155 4.964047 -122.050973 -0.000002 -0.000002 -0.000002 9.405900 8.323711 -88.069074 9.453603 4.613510 -128.051731 0.000003 0.000003 -0.000003 6.580842 8.180080 -91.968101 8.173846 5.371735 -113.426015 0.000000 0.000001 -0.000001 -3.227043 20.112011 -75.571720 5.936840 5.850449 -90.841400 0.000002 -0.000002 0.000001 -0.000000 0.000001 -0.000000 0.882300 7.689504 10.201999 7.550372 1.963468 57.853731 0.000063 75.685190 -0.000080 35.320841 10.055745 5.680945 -3.341836 -3.276472 13.774168 20.875223 -54.536052 -0.016288 -0.000001 0.000001 0.000000 11.836835 5.289147 89.687426 7.123231 -3.951839 122.001645 -0.000002 0.000000 0.000002 8.171048 -7.103230 87.309017 7.522355 -3.673018 127.998455 0.000006 -0.000003 0.000001 4.801455 -6.930738 91.181318 6.504005 -4.276075 113.386003 0.000005 -0.000001 0.000002 -4.344466 -18.765289 74.899206 4.725365 -4.656669 90.839795 -0.000000 -0.000001 0.000004 0.000001 0.000002 0.000001 -0.000000 0.000001 0.000000 0.000001 0.000003 -0.000000 -0.000000 0.000001 0.000000 -0.000000 0.000001 0.000000 -0.000000 0.000001 0.000000 0.000001 0.000003 -0.000000 -0.000000 0.000001 0.000000 -0.000000 0.000001 0.000000 -0.000000 0.000001 0.000000 0.000001 0.000003 -0.000000 -0.000000 0.000000 0.000000 -0.000000 0.000000 0.000000 -0.000000 0.000000 0.000000 
-1.145590 64.321709 0.651035 12.299387 -55.914036 11.024560 -0.000000 -0.000003 0.000000 -40.118093 9.228094 26.442847 40.678360 -10.168146 -9.816509 -8.913117 -1.512482 -3.008982 0.000000 -0.000001 -0.000000 0.000002 0.000000 0.000000 -29.532246 -10.878714 -19.450055 51.956986 8.981026 -0.860229 -36.649723 -4.531794 8.891703 -0.000000 0.000000 -0.000000 -0.000002 -0.000001 -0.000001 11.712212 1.414086 -2.532766 -7.573175 6.733741 -2.520089 0.220137 5.397603 -4.595491 -12.569273 9.762727 2.145932 -4.477372 32.927874 5.264198 -0.000000 0.000000 0.000000 -0.000000 0.000000 0.000000 -0.000000 0.000000 0.000000 -0.000000 0.000000 0.000000 -0.000000 0.000000 -0.000000 -0.000000 0.000000 0.000000 -0.000000 0.000000 -0.000000 -0.000000 0.000000 0.000000 -0.000000 0.000000 0.000000 -31.777821 12.952633 5.310876 38.682892 -24.912965 -34.934553 -0.000021 -62.511674 -0.000013 -31.157510 -7.391322 36.475259 -1.721942 5.255660 -13.188773 20.563174 52.534632 0.189383 -0.000002 -0.000000 0.000000 12.956353 -4.115558 -90.449716 8.952165 4.964025 -122.051000 0.000004 0.000000 -0.000002 9.405910 8.323707 -88.069067 9.453608 4.613523 -128.051717 0.000003 0.000002 -0.000001 6.580858 8.180058 -91.968101 8.173838 5.371729 -113.426035 0.000005 0.000001 0.000001 -3.227029 20.112020 -75.571692 5.936846 5.850442 -90.841400 0.000001 0.000003 -0.000000 0.000002 -0.000000 0.000001 1.018010 7.684530 10.078000 7.270302 2.953157 57.421086 -0.000007 75.186176 -0.000017 34.670945 9.864158 5.516744 -3.341835 -3.276447 13.774162 20.875237 -54.536055 -0.016282 -0.000001 -0.000001 0.000001 11.836832 5.289164 89.687405 7.123229 -3.951855 122.001631 -0.000003 0.000000 0.000002 8.171038 -7.103230 87.309010 7.522342 -3.673038 127.998442 0.000000 0.000003 -0.000000 4.801446 -6.930738 91.181318 6.504002 -4.276084 113.385996 0.000001 -0.000000 0.000004 -4.344458 -18.765270 74.899212 4.725360 -4.656670 90.839788 -0.000001 0.000001 0.000001 -0.000001 -0.000002 -0.000001 0.000000 0.000000 -0.000000 0.000000 0.000000 -0.000000 0.000000 0.000000 0.000000 0.000000 0.000000 0.000000 0.000000 0.000000 -0.000000 0.000000 0.000000 -0.000000 0.000000 0.000000 0.000000 0.000000 0.000000 0.000000 0.000000 0.000000 -0.000000 0.000000 0.000000 -0.000000 -0.000000 -0.000003 0.000000 -0.000000 -0.000003 0.000000 -0.000000 -0.000003 0.000000 
-1.174239 64.321274 0.647240 12.260773 -55.858943 10.972941 -0.000001 0.000002 -0.000000 -40.108718 9.219242 26.471979 40.663279 -10.123634 -9.825339 -8.895512 -1.622833 -3.025922 -0.000000 0.000000 -0.000000 0.000001 -0.000002 -0.000000 -29.471614 -10.907693 -19.415468 51.957816 8.979616 -0.860200 -36.691001 -4.582336 8.864150 0.000000 -0.000002 -0.000000 -0.000002 -0.000001 0.000000 11.712223 1.414196 -2.533030 -7.573172 6.733750 -2.520092 0.220140 5.397579 -4.595490 -12.608602 10.491365 2.412569 -4.224775 32.405754 4.896691 -0.000000 0.000000 -0.000000 -0.000000 0.000000 -0.000000 -0.000000 0.000000 0.000000 -0.000000 0.000000 -0.000000 -0.000000 0.000000 -0.000000 -0.000000 0.000000 -0.000000 -0.000000 0.000000 -0.000000 -0.000000 0.000000 -0.000000 -0.000000 0.000000 -0.000000 -31.754082 12.465685 5.128838 39.012302 -25.126453 -34.726994 0.000015 -61.838791 0.000005 -31.459633 -7.671487 36.216166 -1.721947 5.255650 -13.188789 20.563178 52.534619 0.189405 0.000001 0.000002 -0.000001 12.956338 -4.115548 -90.449723 8.952156 4.964050 -122.050986 -0.000000 -0.000001 -0.000002 9.405917 8.323713 -88.069067 9.453603 4.613498 -128.051731 0.000003 -0.000001 0.000002 6.580868 8.180073 -91.968087 8.173827 5.371738 -113.426008 -0.000001 0.000003 0.000001 -3.227029 20.112013 -75.571713 5.936829 5.850443 -90.841393 -0.000002 0.000002 -0.000000 0.000001 0.000001 -0.000002 1.163714 7.679721 9.947278 6.979112 3.931130 56.951736 0.000039 74.671733 -0.000023 33.974556 9.691016 5.366325 -3.341840 -3.276456 13.774181 20.875216 -54.536065 -0.016295 -0.000005 -0.000002 -0.000002 11.836851 5.289142 89.687433 7.123215 -3.951839 122.001631 -0.000003 0.000001 -0.000001 8.171044 -7.103244 87.309017 7.522367 -3.673049 127.998455 -0.000001 0.000000 0.000001 4.801454 -6.930745 91.181332 6.503999 -4.276093 113.385983 0.000003 -0.000001 0.000004 -4.344458 -18.765289 74.899212 4.725349 -4.656685 90.839795 -0.000000 0.000000 0.000004 -0.000001 0.000001 0.000004 0.000001 0.000002 -0.000000 -0.000000 -0.000001 0.000000 0.000001 0.000002 -0.000001 0.000001 0.000002 -0.000001 0.000001 0.000002 -0.000000 -0.000000 -0.000001 0.000001 0.000001 0.000002 -0.000001 0.000001 0.000002 -0.000001 0.000001 0.000002 -0.000000 -0.000000 -0.000001 0.000001 -0.000001 0.000002 -0.000000 -0.000001 0.000002 -0.000000 -0.000001 0.000002 -0.000000 
-1.200413 64.326546 0.644923 12.227571 -55.841199 10.919894 0.000000 -0.000001 -0.000000 -40.077679 9.213137 26.512124 40.639489 -10.075193 -9.834071 -8.886163 -1.705237 -3.045329 -0.000000 -0.000002 0.000000 0.000003 0.000003 -0.000000 -29.406959 -10.941773 -19.374334 51.929826 8.979171 -0.860243 -36.708107 -4.598232 8.846097 -0.000000 -0.000002 -0.000000 -0.000001 -0.000000 -0.000000 11.712218 1.414245 -2.533003 -7.573172 6.733749 -2.520092 0.220139 5.397583 -4.595489 -12.694474 11.267593 2.689844 -3.974850 31.886878 4.534250 0.000000 -0.000000 -0.000000 0.000000 -0.000000 -0.000000 0.000000 -0.000000 0.000000 0.000000 -0.000000 0.000000 0.000000 -0.000000 0.000000 0.000000 -0.000000 0.000000 0.000000 -0.000000 0.000000 0.000000 -0.000000 -0.000000 0.000000 -0.000000 -0.000000 -31.738349 11.953799 4.944353 39.461568 -25.312630 -34.536865 -0.000039 -61.081057 -0.000046 -31.790016 -7.989011 35.931812 -1.721958 5.255656 -13.188793 20.563200 52.534649 0.189396 0.000002 0.000001 -0.000007 12.956348 -4.115542 -90.449723 8.952150 4.964030 -122.051000 -0.000001 -0.000002 -0.000002 9.405897 8.323703 -88.069074 9.453614 4.613517 -128.051717 0.000002 0.000003 -0.000001 6.580863 8.180079 -91.968122 8.173843 5.371752 -113.425994 -0.000002 0.000002 -0.000001 -3.227032 20.112023 -75.571713 5.936846 5.850437 -90.841379 0.000002 -0.000005 0.000004 -0.000001 -0.000000 -0.000002 1.316083 7.674891 9.811790 6.684428 4.902606 56.464300 0.000054 74.142940 -0.000068 33.251089 9.531743 5.218444 -3.341842 -3.276468 13.774165 20.875237 -54.536052 -0.016281 0.000001 0.000001 0.000002 11.836844 5.289164 89.687419 7.123200 -3.951836 122.001645 0.000001 -0.000001 0.000002 8.171048 -7.103225 87.309010 7.522354 -3.673028 127.998455 0.000003 -0.000002 0.000001 4.801442 -6.930744 91.181332 6.504009 -4.276092 113.385996 0.000004 0.000003 0.000000 -4.344469 -18.765284 74.899226 4.725382 -4.656677 90.839788 -0.000001 0.000001 0.000001 -0.000000 0.000001 -0.000001 -0.000000 0.000001 -0.000000 -0.000001 0.000001 0.000000 -0.000000 0.000001 0.000000 -0.000000 0.000001 0.000000 -0.000000 0.000001 -0.000000 -0.000001 0.000001 0.000000 -0.000000 0.000001 0.000000 -0.000000 0.000001 0.000000 -0.000000 0.000001 -0.000000 -0.000001 0.000001 0.000000 0.000000 -0.000001 -0.000000 0.000000 -0.000001 -0.000000 0.000000 -0.000001 -0.000000 
